HIERARCHY
ROOT hip
{
	OFFSET 0.000000 0.000000 0.000000 
	CHANNELS 6 Xposition Yposition Zposition Xrotation Zrotation Yrotation
	JOINT abdomen
	{
		OFFSET 0.000000 3.402643 0.000000 
		CHANNELS 3 Xrotation Zrotation Yrotation
		JOINT chest
		{
			OFFSET 0.000000 8.438565 -0.680529 
			CHANNELS 3 Xrotation Zrotation Yrotation
			JOINT neck
			{
				OFFSET 0.000000 10.207942 -0.272212 
				CHANNELS 3 Xrotation Zrotation Yrotation
				JOINT head
				{
					OFFSET 0.000000 3.130431 0.000000 
					CHANNELS 3 Xrotation Zrotation Yrotation
					End Site
					{
						OFFSET 0.000000 3.130435 0.000000 
					}
				}
			}
			JOINT lCollar
			{
				OFFSET 3.470700 6.669187 -0.816635 
				CHANNELS 3 Yrotation Zrotation Xrotation
				JOINT lShldr
				{
					OFFSET 3.198488 0.000000 0.000000 
					CHANNELS 3 Zrotation Yrotation Xrotation
					JOINT lForeArm
					{
						OFFSET 10.139888 0.000000 0.000000 
						CHANNELS 3 Yrotation Zrotation Xrotation
						JOINT lHand
						{
							OFFSET 8.370511 0.000000 0.000000 
							CHANNELS 3 Zrotation Yrotation Xrotation
							End Site
							{
								OFFSET 4.083176 0.000000 0.000000 
							}
						}
					}
				}
			}
			JOINT rCollar
			{
				OFFSET -3.470700 6.669187 -0.816635 
				CHANNELS 3 Yrotation Zrotation Xrotation
				JOINT rShldr
				{
					OFFSET -3.198488 0.000000 0.000000 
					CHANNELS 3 Zrotation Yrotation Xrotation
					JOINT rForeArm
					{
						OFFSET -10.139888 0.000000 0.000000 
						CHANNELS 3 Yrotation Zrotation Xrotation
						JOINT rHand
						{
							OFFSET -8.370511 0.000000 0.000000 
							CHANNELS 3 Zrotation Yrotation Xrotation
							End Site
							{
								OFFSET -4.083176 0.000000 0.000000 
							}
						}
					}
				}
			}
		}
	}
	JOINT lThigh
	{
		OFFSET 5.308129 -1.633274 1.361059 
		CHANNELS 3 Xrotation Zrotation Yrotation
		JOINT lShin
		{
			OFFSET -2.041588 -20.007561 0.000000 
			CHANNELS 3 Xrotation Zrotation Yrotation
			JOINT lFoot
			{
				OFFSET 0.000000 -19.190928 -1.224953 
				CHANNELS 3 Xrotation Yrotation Zrotation
				End Site
				{
					OFFSET 0.000000 -2.449906 4.627600 
				}
			}
		}
	}
	JOINT rThigh
	{
		OFFSET -5.308129 -1.633274 1.361059 
		CHANNELS 3 Xrotation Zrotation Yrotation
		JOINT rShin
		{
			OFFSET 2.041588 -20.007561 0.000000 
			CHANNELS 3 Xrotation Zrotation Yrotation
			JOINT rFoot
			{
				OFFSET 0.000000 -19.190928 -1.224953 
				CHANNELS 3 Xrotation Yrotation Zrotation
				End Site
				{
					OFFSET 0.000000 -2.449906 4.627600 
				}
			}
		}
	}
}
MOTION
Frames: 16
Frame Time: 0.033333
9.483375 42.008873 85.520187 -10.205079 4.042969 -143.613281 18.232422 -0.087891 -6.816407 -15.449219 -3.076172 -6.885290 -15.537107 1.718750 -15.107127 19.941404 6.718750 -14.228515 -4.042969 5.361329 0.184634 -77.363281 -25.957031 49.673462 -59.316402 -2.978516 -30.399885 18.046875 -8.359375 -2.529297 7.900392 6.591797 -0.381980 61.552734 26.074221 -7.827737 90.781250 3.730469 -62.246464 -9.326173 -7.109375 0.732422 -5.995595 16.148445 10.220049 36.831661 -1.101698 -2.652603 -30.549486 16.284077 4.744774 -52.672256 -26.842484 -16.442944 63.328457 -0.888690 3.324521 -17.158560 -26.836615 -3.695657 
9.489532 41.704216 84.536407 -11.074219 4.570313 -146.063660 16.767576 0.263672 -7.998041 -15.791015 -4.482422 -8.282014 -16.376953 3.476563 -13.339251 20.810547 5.478516 -12.080078 -5.087890 5.195312 0.096772 -77.001953 -33.847656 46.669922 -50.712887 -3.144531 -33.495564 18.466797 -14.003906 -4.338299 7.539062 6.250000 -0.292969 60.556641 30.634768 -7.075100 93.261719 3.750000 -63.662109 -9.277344 -5.722657 0.545901 -4.745561 16.166729 10.839180 36.129032 -1.208910 -2.299194 -30.184126 18.615396 5.970015 -54.106941 -25.122950 -17.617584 66.655869 -1.415007 3.506574 -19.579279 -30.310934 -5.745405 
9.486083 41.349438 83.259888 -12.314453 5.273438 -150.458466 14.755858 1.328125 -9.150391 -16.669922 -5.185547 -9.677734 -16.962891 4.863281 -10.146484 21.855471 3.886719 -8.866526 -5.791016 4.843750 0.126129 -75.029297 -40.742188 38.997536 -45.751949 -3.046875 -32.782684 17.177736 -17.802734 -5.042048 6.845703 5.878906 -0.351563 59.062496 36.289063 -5.996093 98.085938 3.632813 -63.906250 -8.730469 -5.048828 0.410156 -3.017814 16.039858 11.458311 36.130707 -1.147185 -2.280376 -29.650106 22.926401 7.974263 -55.828659 -21.044107 -17.241219 68.794495 -1.074219 3.084042 -22.774900 -31.583199 -8.201751 
9.501229 40.951439 81.638092 -13.359374 5.976563 -156.434525 12.919921 2.568359 -10.244141 -18.076172 -5.009766 -11.064454 -17.373047 5.781250 -6.376953 22.548828 1.777344 -4.980468 -5.976563 5.537109 0.213902 -70.664063 -45.751949 26.474609 -47.119144 -3.027344 -28.017582 14.199219 -22.285156 -5.033000 5.800781 5.341797 -0.381769 57.304688 42.558594 -5.419921 104.150391 3.710938 -62.266258 -7.998047 -4.189453 0.273438 -1.270229 15.125268 11.182363 37.735695 -0.981738 -2.312000 -27.263691 29.063274 9.895081 -57.105591 -15.457150 -15.763313 70.705536 -1.240038 3.570752 -27.199823 -32.370983 -11.383040 
9.567359 40.545437 79.726799 -14.238280 6.152344 -163.289963 11.621094 3.925782 -11.122379 -19.492189 -4.316407 -12.275391 -17.431641 7.128907 -2.147226 22.695313 -0.859375 -0.410303 -5.625000 7.294922 0.341797 -64.462891 -48.173828 12.492723 -55.654297 -2.705078 -22.294924 12.910156 -25.742188 -5.121428 4.580078 4.990234 -0.410156 56.015625 49.365238 -5.185547 110.478516 3.701171 -58.183594 -7.783203 -1.591797 -0.058865 -1.085033 14.922531 11.538165 43.532707 -0.650823 -2.644965 -22.249456 34.466763 8.543239 -56.900311 -8.436460 -12.209723 72.460518 -1.406246 3.524241 -31.352077 -32.563812 -14.186379 
9.617723 40.173672 77.635086 -14.062500 5.800781 -170.497055 11.552734 5.283204 -12.021485 -21.250002 -3.789063 -13.486328 -16.435547 8.720703 2.597657 22.324217 -3.847656 4.140625 -5.449219 10.107422 0.410156 -58.242191 -46.513672 -0.908204 -69.121094 -2.451172 -15.878489 14.501953 -24.990232 -5.726780 3.701171 4.814453 -0.322266 56.513672 54.365234 -4.433594 116.904305 3.671875 -54.981098 -7.949218 2.060547 -0.419571 -4.052571 15.394119 11.576339 54.925591 -0.246796 -3.220760 -11.422744 37.705990 2.892901 -55.724483 -1.962088 -8.468863 73.699104 -1.367133 3.629025 -34.407001 -31.547062 -15.386693 
9.552212 39.845615 75.503845 166.279297 174.716797 1.768477 12.246093 6.826172 -12.304687 -23.007813 -2.207031 -14.335937 -15.908204 8.974610 7.851561 21.601563 -6.474609 8.690305 -5.107422 12.216797 0.566406 -53.886715 -43.046875 -12.301587 -82.783203 -2.109375 -11.767579 13.652344 -24.091797 -5.078125 3.349609 4.990234 -0.312500 56.708984 57.841797 -4.052734 123.193359 3.593750 -52.676392 -8.173828 5.888671 -0.771484 -11.228811 16.255907 10.688876 70.703354 0.569721 -3.689830 -1.115763 33.871685 -3.677726 -52.724041 2.773302 -5.300287 74.743622 -1.364599 3.662622 -36.878349 -29.686970 -16.101082 
9.254329 39.525940 73.410164 166.640640 175.771484 -6.669201 13.173828 8.007812 -11.972656 -22.490234 0.429688 -13.808521 -17.919922 8.095703 12.384188 20.712893 -8.583984 13.045418 -4.072266 12.734375 0.546875 -50.439453 -40.761719 -21.220703 -95.332031 -2.060547 -10.595352 11.874999 -21.904295 -4.003906 2.998047 5.351563 -0.302734 54.707027 61.552734 -6.484375 129.082031 3.623047 -52.354134 -7.324219 7.636718 -0.888672 -20.867359 17.488176 10.302134 85.294952 1.396912 -3.722220 -0.337766 22.266556 -4.668916 -49.812614 5.781085 -2.206883 75.423233 -1.725839 3.950787 -39.264294 -26.571077 -15.654181 
8.689964 39.201084 71.315262 -12.832031 2.285156 164.707413 14.560546 8.583984 -10.136718 -21.083982 2.539063 -12.235895 -21.289064 7.109375 16.005859 20.009766 -9.804688 16.533201 -3.027344 12.734376 0.488281 -48.505859 -38.964844 -26.910439 -106.074219 -1.982422 -10.116849 10.732422 -18.730471 -3.176964 2.998047 5.869141 -0.322266 51.787109 64.267578 -11.220703 134.658203 3.750000 -53.701809 -6.093750 7.832032 -0.818980 -32.336082 18.782619 10.209722 96.668701 2.420100 -4.041645 -2.285135 15.867748 -4.029580 -47.319088 6.629788 1.426300 76.654495 -1.911533 4.026690 -40.304333 -22.529333 -13.082077 
7.971424 38.842743 69.163200 -11.953125 0.175781 156.445358 16.464842 8.496094 -7.939453 -20.556641 3.769531 -10.126954 -23.232420 6.054688 18.975639 18.779297 -10.683593 19.287109 -3.203125 12.734375 0.527344 -48.798824 -36.582031 -29.664024 -114.570320 -2.138672 -10.625000 9.921875 -16.201172 -2.541785 4.062500 6.220703 -0.460043 49.843750 65.214844 -15.937500 139.394531 3.730468 -55.888668 -5.185547 7.324219 -0.595703 -45.304428 20.346363 9.072278 104.578178 2.917588 -3.722394 -7.203523 20.724827 -2.105195 -45.695576 5.779251 5.263463 78.059212 -1.921300 4.085340 -41.654064 -19.074226 -11.084755 
7.194020 38.436119 66.885178 -10.556642 -1.943359 149.052734 18.867188 8.232422 -5.800642 -20.908205 3.769531 -8.193360 -24.111330 5.732422 20.781248 17.382811 -11.201171 21.337891 -3.574219 13.076174 0.625000 -49.814453 -33.896488 -30.751957 -121.181641 -2.128906 -10.956669 9.599608 -14.501951 -2.138672 5.458984 6.572266 -0.468750 49.218750 65.458984 -19.472654 142.988297 3.759766 -58.584621 -3.750000 6.464844 -0.340696 -57.186493 22.431358 4.703801 105.802147 2.897535 -3.938673 -11.686193 26.245087 0.779071 -44.178360 3.808371 9.236471 79.984596 -2.087799 3.651300 -42.393784 -16.447203 -9.311807 
6.480775 38.047729 64.471085 -8.974609 -3.691406 142.548187 21.044922 7.509766 -3.994141 -21.435547 3.417969 -6.425200 -24.990234 6.035156 21.806641 16.513672 -11.376954 22.529293 -3.583984 13.955080 0.671473 -51.132813 -31.171877 -31.801931 -126.533203 -2.119140 -11.923468 10.087892 -13.427734 -2.160471 6.328125 7.109375 -0.458984 49.824223 66.035156 -20.186388 145.468750 3.652344 -59.961563 -3.925781 6.113282 -0.351563 -65.232002 24.716019 -2.117424 100.017700 2.771670 -3.772723 -14.881474 26.831026 2.306963 -42.952969 1.169875 12.492967 81.744659 -2.107972 3.865333 -43.068657 -15.541568 -8.883292 
5.893630 37.763882 61.889263 -7.207031 -5.458984 136.737350 22.636721 6.435547 -2.850468 -21.962893 3.593750 -5.009766 -25.693357 6.142578 22.676826 15.644531 -11.191406 23.515625 -3.408203 14.306640 0.654297 -52.207031 -27.753906 -32.968750 -130.722656 -2.138672 -12.236327 10.791015 -13.222657 -2.197265 7.187500 7.119140 -0.371094 51.865234 65.849609 -18.613279 147.050781 3.662110 -61.162109 -4.277344 6.289063 -0.370024 -67.852028 27.175222 -8.152897 87.206062 2.090259 -3.665200 -12.327444 23.343946 0.439668 -41.749531 -2.511886 15.877384 82.270958 -2.117752 3.893609 -43.597412 -14.838154 -8.804440 
5.383447 37.604042 59.130859 -5.458984 -6.855469 132.000778 23.691408 4.736328 -2.069506 -22.138672 3.769531 -3.778655 -26.933592 6.533203 22.989393 15.468751 -11.015625 23.855556 -3.037110 14.140625 0.556641 -52.773438 -24.345703 -34.828243 -132.832031 -2.187500 -12.226268 10.751953 -14.755858 -2.580611 7.382811 6.230468 -0.468750 57.031250 65.185539 -13.388671 148.203125 3.740235 -60.507813 -4.111328 6.992188 -0.361328 -65.967545 29.655756 -12.300578 69.469543 1.115779 -3.807552 -4.047648 17.074051 -3.455832 -40.345230 -7.237491 17.969879 81.565704 -2.107872 3.686297 -43.608089 -14.881241 -8.821604 
4.882747 37.494938 56.172096 -3.349609 -7.910156 127.957642 24.746094 3.154297 -1.083984 -22.138672 3.593750 -2.548216 -28.691404 6.972656 22.227747 16.171875 -11.015625 23.535156 -2.714844 13.779403 0.622674 -51.894531 -21.171875 -38.499619 -130.185547 -2.138672 -12.363280 10.683594 -20.117188 -3.343203 7.724609 5.009766 -0.322266 66.523438 64.091797 -0.088872 147.255859 3.701172 -54.160786 -3.964844 8.740234 -0.525858 -59.242500 30.350157 -16.081301 50.865387 0.081594 -3.424785 2.939309 11.041612 -5.455794 -38.797947 -13.544756 19.367983 79.636826 -2.128796 3.761292 -42.977291 -15.248055 -8.579883 
4.316165 37.335960 52.998581 -1.064453 -8.613281 124.090332 25.468752 1.640625 0.303014 -22.138672 2.714844 -0.614772 -30.810549 7.158204 20.781248 17.041016 -10.498047 22.205254 -2.714844 13.603621 0.612938 -48.398438 -19.873045 -44.749409 -119.453125 -2.089844 -10.517223 11.562499 -26.425779 -4.667969 8.261719 3.408203 -0.322846 79.189453 63.447266 21.318363 140.751953 3.564453 -45.410156 -5.654297 12.744141 -0.996094 -53.773453 29.305573 -20.363613 41.055290 -0.373944 -2.977774 7.249643 11.283539 -6.472456 -37.827438 -20.555868 21.083122 76.497696 -1.620364 3.549036 -41.392422 -14.454651 -7.300940 
